<?xml version="1.0" encoding="UTF-8"?> <svg xmlns="http://www.w3.org/2000/svg" id="Layer_1" data-name="Layer 1" viewBox="0 0 1200 522"><defs><style>.cls-1{fill:#4d7dbe;}.cls-2{fill:#92c73e;}.cls-3{fill:#231f20;}.cls-4{fill:#808184;}.cls-5{fill:#6a7a8d;}</style></defs><title>Logos_carmen</title><path class="cls-1" d="M393.2,218a26,26,0,0,0,26-26V130.56a26,26,0,0,0-26-26H263A156.25,156.25,0,0,0,106.74,260.77h0A156.25,156.25,0,0,0,263,417H393.2a26,26,0,0,0,26-26V329.62a26,26,0,0,0-52.08,0v35.31H263A104.17,104.17,0,0,1,158.82,260.76h0A104.16,104.16,0,0,1,263,156.6H367.16v35.31A26,26,0,0,0,393.2,218Z"></path><path class="cls-2" d="M263,243.4h34.72v0h8.8a26,26,0,0,0,26-26h0a26,26,0,0,0-26-26H271.62a25.79,25.79,0,0,0-2.94.18c-1.88-.16-3.77-.26-5.69-.26a69.44,69.44,0,0,0-69.44,69.44h0A69.44,69.44,0,0,0,263,330.21c1.88,0,3.74-.1,5.58-.25a25.61,25.61,0,0,0,3.05.2h34.89a26,26,0,0,0,0-52h-8.8v-.05H263a17.37,17.37,0,0,1,0-34.73Z"></path><path class="cls-3" d="M471.73,250c0-28.56,18-53.13,52.09-53.13,12.91,0,23.14,3.85,34,13.18A9.61,9.61,0,1,1,544.59,224c-6.08-6.37-12.32-8.14-20.77-8.14C501,215.85,490,232,490,250c0,18.35,10.84,35.22,33.84,35.22,8.45,0,16.32-3.4,23.14-9.47a10,10,0,0,1,13.65,1.78c2.38,3.25,3.57,8.73-1.63,13.91C548.6,301.09,536.13,303,523.82,303,487.91,303,471.73,278.59,471.73,250Z"></path><path class="cls-3" d="M579,302c-4.75-2.67-7.71-8-4.75-14.21l42.59-83c4-7.85,14.69-8.14,18.4,0l41.85,83c6.08,11.54-11.87,20.72-17.22,9.18l-6.52-13H598.59l-6.38,13C589.83,302,584.34,303,579,302Zm63.81-37.59L626,227.83l-18.25,36.56Z"></path><path class="cls-3" d="M710.47,292.36c0,12.87-19.73,13.32-19.73.29V208.59a8.86,8.86,0,0,1,8.9-9h39.47c37.69,0,45.41,50.31,13.95,62.89l19.74,24c7.71,11.39-7.72,22.34-16.62,11.1l-22.41-32h-23.3Zm0-43.81h28.64c19.29,0,20.48-31.07,0-31.07H710.47Z"></path><path class="cls-3" d="M811.43,237v54.75c0,6.52-5.34,10.22-10.68,10.22-4.75,0-8.9-3.7-8.9-10.22V208.45a9.85,9.85,0,0,1,8.9-10.21c4.3,0,6.83,2.51,9.35,5.32l32.64,44,33.84-45.58c4.89-6.07,16.91-3.7,16.91,6.51v83.31c0,6.52-4.15,10.22-8.9,10.22-5.34,0-9.5-3.7-9.5-10.22V237l-24.63,31.08c-5.34,6.51-12,6.51-16.91,0Z"></path><path class="cls-3" d="M925.11,302a9.05,9.05,0,0,1-9.2-9.18V208.74a9,9,0,0,1,9.2-9.17h53.27c13.66,0,13.36,19.24,0,19.24H935.65V241H973c13.21,0,13.21,19.38,0,19.38H935.65v22.2h45.26c13.5,0,14.54,19.39,0,19.39Z"></path><path class="cls-3" d="M1007.26,209.93c0-5.33,1.19-10.51,8.91-10.51,5.34,0,6.53,1.33,10.53,5.18l49.12,61.27V208.45c0-4.89,4.3-10.21,9.35-10.21,5.34,0,10.53,5.32,10.53,10.21v83.31c0,6.52-4,9-7.86,10.22-5.2,0-7.72-1.19-12-5.18l-49.12-62.16v57.12c0,6.52-4,10.22-9.35,10.22a9.76,9.76,0,0,1-10.09-10.22Z"></path><path class="cls-4" d="M477.7,104.64l18.71,43.43L502,162h.19l24-57.33h6.37v62.17h-4V138.07q0-13.95.65-29.62h-.37q-6.95,15.48-8.56,19.39l-16.11,39h-4l-16.52-39q-1.21-2.88-8.66-19.39h-.28q.64,19.77.65,29.62v28.74h-4.09V104.64Z"></path><path class="cls-4" d="M574.13,144.63v-40h4.09v41.71q0,8.42,4.87,13.16t13.62,4.74q8.84,0,13.68-4.58t4.84-13.32V104.64h4.1v40q0,23.34-22.72,23.34-11.26,0-16.87-6T574.13,144.63Z"></path><path class="cls-4" d="M664.36,104.64l28,39.11,11.73,16.78h.28q-.66-5.85-.65-19.25V104.64h4.1v62.17H704.3l-28.12-39.53-11.63-16.46h-.19q.55,5.87.56,21.81v34.18h-4.09V104.64Z"></path><path class="cls-4" d="M749.52,104.64h4.1v62.17h-4.1Z"></path><path class="cls-4" d="M792.72,136.26a36.23,36.23,0,0,1,4-17.23,28.37,28.37,0,0,1,11.1-11.56,32.52,32.52,0,0,1,16.41-4.09,39.19,39.19,0,0,1,7.61.75,18.71,18.71,0,0,1,5.47,1.72v3.9a38.59,38.59,0,0,0-12.71-2.55,29.19,29.19,0,0,0-13.87,3.3,24.18,24.18,0,0,0-9.91,9.86q-3.69,6.56-3.68,16,0,13.4,7.33,20.6t21.11,7.21a31.67,31.67,0,0,0,12.38-2.51v3.81a20.82,20.82,0,0,1-5.8,1.86,38.38,38.38,0,0,1-7.19.65q-15.54,0-23.87-8.23T792.72,136.26Z"></path><path class="cls-4" d="M874.77,104.64h4.09v62.17h-4.09Z"></path><path class="cls-4" d="M937.22,104.64q10.42,0,16.27,4.25t5.84,12.4q0,9.72-7.08,14.43t-20.48,4.72a64.16,64.16,0,0,1-7.16-.51v26.88h-4.1V104.64ZM955,121.47q0-7-5.07-10t-14.29-3.07H924.61v27.9q4.65.47,7.16.46,12.3,0,17.78-3.9T955,121.47Z"></path><path class="cls-4" d="M995.92,104.64H1000v62.17h-4.09Z"></path><path class="cls-4" d="M1039.12,135.75a37.41,37.41,0,0,1,3.61-16.65,28,28,0,0,1,10-11.55,26.17,26.17,0,0,1,14.57-4.17,26.66,26.66,0,0,1,14.91,4.17,27.22,27.22,0,0,1,9.87,11.5,38.72,38.72,0,0,1,3.47,16.7A37.24,37.24,0,0,1,1092,152.3a27.92,27.92,0,0,1-10,11.51,25.86,25.86,0,0,1-14.45,4.16,27.27,27.27,0,0,1-15.06-4.14,26.94,26.94,0,0,1-9.91-11.46A38.39,38.39,0,0,1,1039.12,135.75Zm52,0a34.84,34.84,0,0,0-3.17-15.42,23.31,23.31,0,0,0-8.58-9.86,23.21,23.21,0,0,0-24.09,0,23.43,23.43,0,0,0-8.64,9.86,34.7,34.7,0,0,0-3.18,15.42,34.33,34.33,0,0,0,3.21,15.46,22.5,22.5,0,0,0,20.85,13,22.23,22.23,0,0,0,11.91-3.3,23,23,0,0,0,8.52-9.74A34.74,34.74,0,0,0,1091.16,135.75Z"></path><path class="cls-5" d="M480.29,416.41c-4.1,0-8.57-2.23-8.57-7.68V338.31c0-4.46,4.47-7.68,8.57-7.68H508.7c56.71,0,55.47,85.78,1.12,85.78Zm7.81-70.66v55.54h20.6c33.51,0,35-55.54,0-55.54Z"></path><path class="cls-5" d="M572,416.41a7.57,7.57,0,0,1-7.69-7.68V338.31a7.49,7.49,0,0,1,7.69-7.68h44.55c11.41,0,11.16,16.11,0,16.11H580.82v18.6h31.27c11,0,11,16.24,0,16.24H580.82v18.59h37.85c11.29,0,12.16,16.24,0,16.24Z"></path><path class="cls-5" d="M674,416.41c-4-2.23-6.45-6.69-4-11.9L705.64,335c3.35-6.58,12.28-6.82,15.38,0l35,69.54c5.09,9.67-9.92,17.36-14.39,7.69l-5.46-10.91H690.38L685,412.2C683.05,416.41,678.47,417.28,674,416.41Zm53.35-31.49-14-30.62-15.26,30.62Z"></path><path class="cls-5" d="M783.22,408.35c0,10.79-16.51,11.16-16.51.25V338.19a7.42,7.42,0,0,1,7.45-7.56h33c31.51,0,38,42.15,11.66,52.68l16.5,20.09c6.45,9.54-6.45,18.71-13.89,9.29L802.7,385.92H783.22Zm0-36.69h23.95c16.13,0,17.12-26,0-26H783.22Z"></path><path class="cls-5" d="M858.12,416.41a7.57,7.57,0,0,1-7.69-7.68V338.31a7.49,7.49,0,0,1,7.69-7.68h44.55c11.41,0,11.16,16.11,0,16.11H866.93v18.6H898.2c11,0,11,16.24,0,16.24H866.93v18.59h37.85c11.29,0,12.16,16.24,0,16.24Z"></path><path class="cls-5" d="M921.15,372.9c0-23.93,15-44.51,43.55-44.51,10.8,0,19.36,3.23,28.42,11a8,8,0,1,1-11,11.65c-5.09-5.33-10.31-6.82-17.38-6.82-19.1,0-28.29,13.51-28.29,28.64,0,15.37,9.06,29.5,28.29,29.5,7.07,0,13.65-2.85,19.36-7.93A8.34,8.34,0,0,1,995.47,396c2,2.72,3,7.31-1.36,11.65-8.69,8.06-19.11,9.67-29.41,9.67C934.67,417.28,921.15,396.82,921.15,372.9Z"></path><path class="cls-5" d="M1051.91,417.65c-23,1-46.78-14.25-46.78-44.63s23.83-45.49,46.78-45.49c21.72,1.11,44.42,16.11,44.42,45.49S1073.63,417.65,1051.91,417.65Zm-1.37-74c-13.89,0-29,9.8-29,29.38s15.14,29.38,29,29.38c14.27,0,29.54-9.91,29.54-29.38S1064.81,343.64,1050.54,343.64Z"></path></svg> 