<?xml version="1.0" standalone="no"?>
<!DOCTYPE svg PUBLIC "-//W3C//DTD SVG 20010904//EN"
 "http://www.w3.org/TR/2001/REC-SVG-20010904/DTD/svg10.dtd">
<svg version="1.0" xmlns="http://www.w3.org/2000/svg"
 width="512.000000pt" height="512.000000pt" viewBox="0 0 512.000000 512.000000"
 preserveAspectRatio="xMidYMid meet">
<metadata>
Created by potrace 1.16, written by Peter Selinger 2001-2019
</metadata>
<g transform="translate(0.000000,512.000000) scale(0.100000,-0.100000)"
fill="#000000" stroke="none">
<path d="M531 4345 c-298 -54 -458 -324 -396 -670 39 -217 184 -362 402 -400
116 -21 3990 -21 4106 0 218 38 363 183 402 400 62 348 -98 616 -400 670 -116
21 -4001 20 -4114 0z m4081 -212 c60 -27 127 -94 158 -158 20 -41 25 -65 25
-135 -1 -77 -4 -91 -34 -148 -38 -70 -69 -100 -145 -140 l-51 -27 -2005 0
-2005 0 -50 25 c-178 88 -238 303 -130 467 42 63 90 101 158 125 49 17 152 17
2042 15 l1990 -2 47 -22z"/>
<path d="M531 3065 c-298 -54 -458 -324 -396 -670 39 -217 184 -362 402 -400
116 -21 3990 -21 4106 0 218 38 363 183 402 400 62 348 -98 616 -400 670 -116
21 -4001 20 -4114 0z m4081 -212 c60 -27 127 -94 158 -158 20 -41 25 -65 25
-135 -1 -77 -4 -91 -34 -148 -38 -70 -69 -100 -145 -140 l-51 -27 -2005 0
-2005 0 -50 25 c-178 88 -238 303 -130 467 42 63 90 101 158 125 49 17 152 17
2042 15 l1990 -2 47 -22z"/>
<path d="M531 1785 c-298 -54 -458 -324 -396 -670 39 -217 184 -362 402 -400
116 -21 3990 -21 4106 0 218 38 363 183 402 400 62 348 -98 616 -400 670 -116
21 -4001 20 -4114 0z m4081 -212 c60 -27 127 -94 158 -158 20 -41 25 -65 25
-135 -1 -77 -4 -91 -34 -148 -38 -70 -69 -100 -145 -140 l-51 -27 -2005 0
-2005 0 -50 25 c-178 88 -238 303 -130 467 42 63 90 101 158 125 49 17 152 17
2042 15 l1990 -2 47 -22z"/>
</g>
</svg>
